<?xml version="1.0" standalone="no"?>
<!DOCTYPE svg PUBLIC "-//W3C//DTD SVG 20010904//EN"
 "http://www.w3.org/TR/2001/REC-SVG-20010904/DTD/svg10.dtd">
<svg version="1.0" xmlns="http://www.w3.org/2000/svg"
 width="260.000000pt" height="260.000000pt" viewBox="0 0 260.000000 260.000000"
 preserveAspectRatio="xMidYMid meet">
<metadata>
Created by potrace 1.11, written by Peter Selinger 2001-2013
</metadata>
<g transform="translate(0.000000,260.000000) scale(0.100000,-0.100000)"
fill="#000000" stroke="none">
<path d="M855 2353 c-102 -29 -166 -60 -195 -93 -3 -3 -40 -35 -84 -70 -75
-62 -81 -70 -138 -187 l-60 -123 178 -222 c98 -123 183 -228 188 -235 6 -7 16
-18 21 -25 6 -7 138 -173 294 -368 156 -195 298 -372 315 -394 80 -100 100
-122 120 -133 31 -18 737 -305 741 -301 2 2 -1 26 -6 53 -5 28 -12 64 -14 80
-10 57 -46 260 -55 305 -5 25 -12 63 -16 85 -4 22 -8 42 -9 45 0 3 -4 27 -9
53 -4 27 -9 59 -12 70 -2 12 -7 37 -10 56 -3 19 -10 45 -15 58 -5 14 -107 146
-227 295 -119 148 -246 307 -282 353 -58 74 -246 307 -277 345 -7 8 -80 99
-163 203 -83 103 -154 187 -158 186 -4 -1 -61 -17 -127 -36z m302 -325 c120
-150 220 -275 223 -278 3 -3 131 -162 285 -355 154 -192 284 -353 289 -357 5
-3 -7 -10 -27 -13 -21 -4 -51 -20 -69 -36 -17 -16 -31 -28 -32 -27 -2 3 -70
89 -93 118 -7 8 -73 92 -148 185 -75 94 -144 179 -153 190 -9 11 -51 63 -92
115 -41 52 -83 104 -92 115 -75 89 -456 571 -453 573 3 3 123 39 137 41 4 0
106 -122 225 -271z m-287 10 c74 -94 140 -176 145 -182 6 -6 143 -177 305
-381 162 -203 299 -375 305 -381 5 -6 22 -26 37 -45 14 -19 40 -51 57 -73 31
-39 32 -56 5 -56 -8 0 -34 -20 -58 -43 l-43 -44 -79 99 c-43 54 -84 104 -89
111 -12 13 -82 101 -105 131 -8 10 -31 38 -50 61 -40 49 -31 37 -413 515
l-285 354 37 32 c59 52 86 73 91 73 3 0 66 -77 140 -171z m-234 -94 c18 -21
239 -297 492 -613 l460 -574 -31 -21 c-18 -12 -39 -36 -47 -53 -8 -18 -17 -32
-20 -32 -5 0 -68 77 -170 209 -57 73 -563 703 -570 710 -3 3 -39 48 -80 100
-41 52 -77 97 -80 100 -3 3 -29 35 -59 72 l-53 68 33 71 33 71 31 -34 c16 -19
44 -52 61 -74z m1378 -1002 c3 -10 7 -28 10 -42 2 -14 9 -46 15 -73 12 -50 21
-99 24 -131 2 -16 -6 -21 -40 -27 -91 -16 -156 -69 -197 -160 l-21 -47 -127
55 -128 55 0 40 c0 45 29 80 85 104 22 9 32 19 29 28 -9 24 23 82 62 112 29
23 47 29 80 27 39 -1 45 2 62 31 26 43 76 67 113 54 16 -5 30 -17 33 -26z"/>
</g>
</svg>
